<?xml version="1.0" standalone="no"?>
<!DOCTYPE svg PUBLIC "-//W3C//DTD SVG 20010904//EN"
 "http://www.w3.org/TR/2001/REC-SVG-20010904/DTD/svg10.dtd">
<svg version="1.0" xmlns="http://www.w3.org/2000/svg"
 width="2049.000000pt" height="2049.000000pt" viewBox="0 0 2049.000000 2049.000000"
 preserveAspectRatio="xMidYMid meet">
<metadata>
Created by potrace 1.14, written by Peter Selinger 2001-2017
</metadata>
<g transform="translate(0.000000,2049.000000) scale(0.100000,-0.100000)"
fill="#000000" stroke="none">
<path d="M2197 13168 c-114 -16 -231 -79 -318 -170 -54 -57 -122 -186 -138
-263 -7 -34 -10 -604 -10 -1750 1 -1645 1 -1702 20 -1775 94 -367 442 -587
806 -509 142 31 274 107 369 212 57 64 127 190 148 268 13 49 15 -5 16 -586 1
-352 3 -653 4 -670 23 -270 207 -499 473 -591 66 -23 96 -27 198 -28 140 -1
211 15 322 72 165 84 279 218 338 397 l27 79 0 413 0 413 52 0 c189 0 699 10
736 15 281 37 534 95 657 151 17 8 34 14 38 14 13 0 203 98 261 135 132 84
259 203 353 330 29 39 58 79 67 90 54 72 163 326 180 421 3 15 7 30 9 34 2 4
7 29 11 56 3 27 8 52 10 55 7 13 17 162 17 269 1 135 -8 211 -37 345 -46 214
-152 435 -284 595 -81 98 -213 221 -259 243 -13 5 -23 14 -23 19 0 4 -6 8 -14
8 -8 0 -16 4 -18 8 -5 13 -156 98 -249 141 -109 50 -277 106 -383 127 -44 9
-84 19 -88 23 -3 3 -9 31 -13 61 -4 30 -11 75 -17 100 -5 25 -11 54 -13 65
-22 130 -113 344 -210 490 -227 342 -675 602 -1155 670 -25 3 -56 8 -70 10
-14 2 -59 7 -100 11 -96 9 -1650 11 -1713 2z"/>
<path d="M17697 11454 c-1 -1 -40 -4 -87 -7 -563 -39 -966 -387 -1076 -929
-19 -95 -25 -319 -12 -438 51 -461 319 -813 728 -956 171 -60 300 -79 515 -79
183 1 247 9 393 46 224 57 405 150 552 282 l42 39 -67 64 c-116 112 -202 158
-321 171 -38 4 -76 7 -84 6 -37 -2 -106 -15 -120 -23 -15 -8 -137 -43 -195
-56 -65 -14 -309 -14 -381 1 -195 40 -343 138 -423 278 -27 49 -61 144 -61
174 0 11 160 13 889 13 l889 0 4 32 c6 38 1 371 -6 413 -23 142 -34 187 -73
297 -86 242 -257 436 -478 542 -84 40 -165 71 -211 80 -10 2 -37 9 -59 14 -70
18 -83 20 -323 36 -18 1 -33 2 -35 0z m258 -528 c180 -50 302 -158 355 -315
38 -113 109 -101 -590 -101 -335 0 -610 2 -610 4 0 17 36 99 65 146 88 145
244 249 411 276 21 3 41 8 43 10 11 10 273 -6 326 -20z"/>
<path d="M12307 11435 c-1 -2 -46 -5 -101 -9 -54 -3 -101 -8 -105 -10 -3 -2
-27 -7 -52 -10 -44 -6 -112 -24 -194 -51 -70 -23 -218 -103 -286 -155 -126
-95 -242 -239 -308 -382 -30 -65 -72 -181 -76 -208 -1 -8 -5 -28 -8 -45 -25
-108 -31 -178 -31 -340 0 -176 5 -217 49 -405 12 -54 53 -158 93 -234 162
-314 464 -509 852 -552 181 -19 320 -7 469 43 186 62 328 161 411 285 14 21
27 38 30 38 3 0 5 -81 5 -180 l-1 -180 282 0 281 0 -1 1168 -1 1167 -155 -1
c-144 -1 -159 -3 -210 -26 -58 -27 -93 -56 -133 -110 -27 -36 -57 -110 -60
-146 0 -12 -2 -22 -3 -22 -1 0 -13 17 -27 39 -92 138 -322 277 -507 305 -90
14 -207 25 -213 21z m193 -520 c240 -32 445 -214 514 -456 23 -80 27 -105 30
-199 14 -330 -185 -619 -474 -691 -231 -58 -479 -3 -643 141 -42 37 -137 157
-137 173 0 4 -12 32 -26 64 -37 81 -57 207 -51 328 3 55 8 114 11 130 77 357
389 562 776 510z"/>
<path d="M7159 11338 c11 -29 53 -150 95 -268 140 -403 367 -1055 403 -1155
19 -55 44 -127 55 -160 11 -33 24 -69 28 -80 5 -11 18 -47 29 -80 43 -131 149
-432 164 -466 l15 -36 325 0 c371 0 328 -12 365 102 11 33 48 139 82 235 106
301 134 395 226 742 49 186 92 338 95 338 3 0 11 -24 18 -52 8 -29 47 -179 88
-333 41 -154 77 -289 79 -300 4 -20 40 -125 139 -410 31 -88 69 -196 84 -240
l28 -80 327 -1 c228 -1 329 2 334 10 7 12 51 131 57 156 2 8 22 67 45 130 22
63 43 122 45 130 2 8 25 74 50 145 26 72 52 148 59 170 12 36 77 224 281 810
151 434 255 735 255 740 0 12 -367 4 -415 -9 -106 -28 -209 -104 -258 -190
-26 -45 -83 -211 -112 -326 -2 -8 -25 -82 -51 -165 -25 -82 -50 -163 -54 -180
-5 -16 -38 -127 -75 -245 -88 -288 -119 -388 -151 -495 -21 -70 -28 -86 -35
-70 -10 27 -35 110 -108 360 -339 1173 -340 1177 -380 1225 -21 25 -60 56 -87
70 -44 23 -60 25 -169 25 -96 0 -127 -4 -157 -18 -44 -22 -103 -77 -122 -116
-13 -25 -105 -331 -176 -586 -25 -91 -110 -385 -225 -780 -24 -82 -48 -161
-53 -175 -9 -24 -9 -24 -20 10 -6 19 -79 260 -162 535 -83 275 -155 511 -160
525 -5 14 -21 66 -35 115 -52 175 -86 278 -101 307 -28 53 -97 119 -159 151
l-60 32 -233 3 -232 4 19 -54z"/>
<path d="M13830 11386 c0 -4 23 -61 50 -129 52 -126 57 -138 83 -197 9 -19 25
-60 37 -90 19 -49 30 -74 61 -145 30 -68 544 -1307 555 -1336 7 -20 24 -60 37
-90 13 -30 43 -101 67 -159 23 -58 52 -126 63 -152 l21 -48 305 0 306 0 59
143 c32 78 67 161 77 184 11 23 19 44 19 48 0 3 9 24 19 48 11 23 41 94 66
157 25 63 52 129 60 145 7 17 30 71 50 120 20 50 40 99 45 110 5 11 36 88 70
170 34 83 67 164 75 180 8 17 100 239 205 495 106 256 200 484 211 508 l18 43
-205 -1 c-263 -2 -328 -19 -427 -116 -59 -58 -77 -97 -206 -444 -67 -179 -130
-347 -140 -375 -11 -27 -52 -140 -91 -250 -39 -110 -79 -220 -89 -245 -10 -25
-26 -70 -36 -100 -10 -30 -20 -59 -24 -65 -3 -5 -6 -14 -8 -20 -1 -5 -13 -41
-27 -80 l-25 -70 -14 35 c-23 57 -51 135 -52 140 0 3 -5 19 -12 35 -6 17 -28
75 -48 130 -20 55 -43 116 -50 135 -8 19 -44 118 -80 220 -116 319 -336 894
-355 925 -26 42 -77 88 -130 116 -43 23 -54 24 -292 27 -137 2 -248 1 -248 -2z"/>
</g>
</svg>
